<?xml version="1.0" standalone="no"?>
<!DOCTYPE svg PUBLIC "-//W3C//DTD SVG 20010904//EN"
 "http://www.w3.org/TR/2001/REC-SVG-20010904/DTD/svg10.dtd">
<svg version="1.0" xmlns="http://www.w3.org/2000/svg"
 width="300.000000pt" height="300.000000pt" viewBox="0 0 300.000000 300.000000"
 preserveAspectRatio="xMidYMid meet">
<metadata>
Created by potrace 1.14, written by Peter Selinger 2001-2017
</metadata>
<g transform="translate(0.000000,300.000000) scale(0.100000,-0.100000)"
fill="#000000" stroke="none">
<path d="M835 2491 l-590 -319 0 -652 0 -653 590 -318 c325 -175 595 -318 600
-318 6 0 276 143 600 318 l590 318 0 653 0 652 -590 319 c-324 175 -594 318
-600 318 -5 0 -275 -143 -600 -318z m1215 -66 c433 -233 517 -275 532 -266 25
16 36 -12 14 -34 -14 -15 -16 -81 -16 -621 0 -396 3 -604 10 -604 6 0 10 -7
10 -15 0 -16 -20 -20 -35 -6 -6 5 -227 -109 -535 -275 -409 -220 -529 -290
-545 -313 -22 -34 -60 -42 -67 -13 -7 26 -1094 608 -1130 604 -31 -2 -36 9
-13 28 13 11 15 92 15 614 0 455 -3 605 -12 614 -7 7 -9 12 -4 12 4 0 268 -95
587 -212 319 -116 582 -208 586 -204 4 3 2 11 -4 17 -6 6 -251 98 -544 205
-293 108 -539 199 -546 203 -9 5 185 114 534 302 l548 296 50 -28 c28 -15 282
-152 565 -304z"/>
</g>
</svg>
